<svg width="148" height="380" viewBox="0 0 148 380" fill="none" xmlns="http://www.w3.org/2000/svg">
<defs>
    <linearGradient id="skinGradientBack" x1="74" y1="0" x2="74" y2="380" gradientUnits="userSpaceOnUse">
      <stop offset="0" stop-color="#DCDCDC"/>
      <stop offset="1" stop-color="#CFCFCF"/>
    </linearGradient>
</defs>
  
  <!-- Head -->
  <path d="M74 10 C65 10 58 18 58 30 C58 40 64 48 74 48 C84 48 90 40 90 30 C90 18 83 10 74 10 Z" fill="url(#skinGradientBack)" stroke="#999999" stroke-width="1"/>
  
  <!-- Body -->
  <path d="M74 48 
           L65 50
           Q50 55 40 65
           Q35 68 25 68
           Q15 70 12 85
           Q10 100 15 115
           L12 140
           Q10 150 8 160
           L5 180
           L18 185
           L22 175
           L25 155
           L28 130
           Q30 120 35 115
           L35 140
           Q38 160 42 180
           Q40 190 38 200
           Q35 220 35 240
           Q35 260 40 280
           Q38 300 40 320
           L42 360
           L55 365
           L65 360
           L65 330
           Q65 300 62 280
           Q60 250 68 210
           L74 215
           L80 210
           Q88 250 86 280
           Q83 300 83 330
           L83 360
           L93 365
           L106 360
           Q108 320 110 300
           Q112 280 108 260
           Q113 240 113 220
           Q110 190 106 180
           Q110 160 113 140
           L113 115
           Q118 120 120 130
           L123 155
           L126 175
           L130 185
           L143 180
           L140 160
           Q138 150 136 140
           Q138 115 133 100
           Q130 70 123 68
           Q113 65 98 55
           L83 50
           L74 48 Z" 
        fill="url(#skinGradientBack)" stroke="#999999" stroke-width="1"/>

  <!-- Muscle Definition Lines -->
  <!-- Spine -->
  <line x1="74" y1="50" x2="74" y2="190" stroke="#B0B0B0" stroke-width="0.5"/>
  
  <!-- Scapula/Traps -->
  <path d="M74 90 L55 80" fill="none" stroke="#B0B0B0" stroke-width="0.5"/>
  <path d="M74 90 L93 80" fill="none" stroke="#B0B0B0" stroke-width="0.5"/>
  
  <!-- Glutes -->
  <path d="M42 200 Q55 230 74 215" fill="none" stroke="#B0B0B0" stroke-width="0.5"/>
  <path d="M106 200 Q93 230 74 215" fill="none" stroke="#B0B0B0" stroke-width="0.5"/>
  
  <!-- Calves -->
  <path d="M40 300 Q50 310 62 300" fill="none" stroke="#B0B0B0" stroke-width="0.5"/>
  <path d="M86 300 Q98 310 108 300" fill="none" stroke="#B0B0B0" stroke-width="0.5"/>
</svg>
