<svg width="147" height="383" viewBox="0 0 147 383" fill="none" xmlns="http://www.w3.org/2000/svg">
<g clip-path="url(#clip0_1130_2655)">
<mask id="path-1-inside-1_1130_2655" fill="white">
<path d="M89.665 3.83002C93.7833 6.40785 95.9697 10.1367 97.1755 14.171C97.2572 14.4003 97.339 14.6296 97.4233 14.8658C97.6789 15.8313 97.6978 16.7081 97.6907 17.6958C97.6892 18.071 97.6877 18.4463 97.6861 18.8328C97.6822 19.2219 97.6783 19.6109 97.6742 20.0118C97.6721 20.4067 97.67 20.8017 97.6678 21.2086C97.6623 22.1821 97.6546 23.1556 97.6449 24.129C98.0148 24.1829 98.3847 24.2368 98.7658 24.2923C100.157 24.5416 100.617 24.697 101.4 25.661C101.949 29.1394 101.661 32.85 99.1411 35.7626C97.5004 37.401 95.9342 38.2027 93.4202 38.683C92.5462 42.4077 92.2786 46.0396 92.2559 49.8233C92.2466 50.7572 92.2173 51.69 92.188 52.6236C92.1819 53.223 92.177 53.8225 92.1734 54.4219C92.156 54.8361 92.156 54.8361 92.1382 55.2586C92.1499 56.3394 92.2208 57.1934 93.085 58.0442C94.5419 59.0587 96.0795 59.7487 97.8503 60.3225C98.3464 60.484 98.8426 60.6454 99.3538 60.8117C100.914 61.2749 102.483 61.6731 104.07 62.07C116.44 65.2735 138.016 72.6351 144.531 82.5156C148.047 89.0753 146.34 98.3487 143.647 104.942C143.238 108.236 144.006 111.155 145.068 114.3C146.095 117.372 146.147 120.354 146.17 123.518C146.172 123.8 146.175 124.082 146.177 124.373C146.193 129.227 145.452 133.62 143.647 138.263C143.036 139.882 142.571 141.306 142.561 143.003C142.554 143.329 142.546 143.656 142.538 143.993C142.731 145.314 143.193 146.442 143.728 147.694C148.438 158.738 146.837 170.922 145.055 182.308C144.961 182.917 144.961 182.917 144.865 183.538C144.49 185.941 144.082 188.338 143.647 190.734C143.599 191 143.551 191.266 143.502 191.54C142.831 195.254 142.831 195.254 142.477 196.577C141.55 200.659 141.74 204.919 141.773 209.052C141.778 209.767 141.778 209.767 141.784 210.497C141.801 212.488 141.821 214.478 141.85 216.469C141.87 217.938 141.881 219.408 141.89 220.877C141.903 221.542 141.903 221.542 141.917 222.22C141.936 227.172 140.768 231.079 136.606 234.779C133.954 236.858 131.654 237.331 128.015 237.307C126.446 237.022 125.876 236.548 124.871 235.545C124.203 234.456 124.289 233.695 124.401 232.481C124.624 232.079 124.848 231.677 125.078 231.263C125.92 229.722 126.163 228.236 126.367 226.568C126.424 226.148 126.424 226.148 126.483 225.719C126.576 225.037 126.663 224.355 126.748 223.672C125.229 224.895 123.828 226.122 122.524 227.502C121.749 227.376 120.974 227.249 120.176 227.119C119.666 225.562 119.787 224.453 120.211 222.887C120.39 222.217 120.39 222.217 120.572 221.534C120.703 221.062 120.834 220.591 120.969 220.105C121.1 219.622 121.232 219.138 121.367 218.64C121.747 217.252 122.135 215.866 122.524 214.48C122.659 213.984 122.659 213.984 122.798 213.478C123.667 210.308 124.801 207.276 126.271 204.258C129.689 197.228 127.652 188.984 125.34 181.925C125.247 181.64 125.155 181.354 125.06 181.06C124.665 179.847 124.262 178.636 123.857 177.425C123.243 175.489 122.852 173.564 122.524 171.584C122.443 171.12 122.362 170.656 122.278 170.178C121.208 163.332 121.515 156.423 121.585 149.538C122.338 138.01 122.338 138.01 120.176 126.773C116.797 133.49 115.396 140.699 114.074 147.838C114.003 148.211 113.931 148.584 113.857 148.968C112.492 156.117 112.351 162.25 114.544 169.286C121.492 192.2 122.602 216.462 116.656 239.662C116.455 240.458 116.255 241.254 116.054 242.05C115.957 242.434 115.86 242.818 115.761 243.214C115.49 244.322 115.246 245.432 115.007 246.544C114.606 248.367 114.082 250.138 113.458 251.918C113.305 252.358 113.305 252.358 113.149 252.807C111.551 257.345 109.729 261.608 107.033 265.802C103.924 271.248 103.924 271.248 102.746 277.098C102.745 277.428 102.744 277.759 102.743 278.099C102.746 278.624 102.746 278.624 102.75 279.159C102.751 279.519 102.752 279.879 102.752 280.25C102.771 282.717 102.922 285.149 103.171 287.608C103.464 290.835 103.235 293.996 102.808 297.208C102.653 297.208 102.499 297.208 102.339 297.208C102.304 296.493 102.304 296.493 102.269 295.763C102.178 293.976 102.064 292.189 101.944 290.403C101.895 289.633 101.852 288.863 101.816 288.093C101.603 282.228 101.603 282.228 98.1473 277.249C96.8017 276.248 95.5581 275.59 93.8896 274.994C93.8896 274.741 93.8896 274.488 93.8896 274.228C91.0388 274.034 89.3024 274.595 86.8485 275.76C87.1038 274.2 87.5325 272.981 88.3741 271.571C90.3235 267.921 91.0703 263.945 92.012 260.057C92.962 261.22 93.131 261.734 93.3505 263.078C93.411 263.437 93.4716 263.796 93.5339 264.166C93.5932 264.54 93.6525 264.914 93.7136 265.299C93.808 265.867 93.808 265.867 93.9043 266.446C94.0591 267.38 94.2106 268.314 94.359 269.249C94.6688 268.87 94.9787 268.491 95.2979 268.1C95.3614 268.374 95.4249 268.648 95.4904 268.93C96.2881 271.943 97.6907 275.797 100.461 278.058C100.526 277.721 100.591 277.385 100.658 277.038C101.75 272.221 104.152 267.9 106.599 263.463C109.579 259.031 109.579 259.031 109.85 254.312C109.495 253.734 109.133 253.158 108.766 252.586C106.954 249.38 106.364 245.936 105.595 242.487C105.432 241.777 105.268 241.068 105.103 240.359C104.442 237.506 103.802 234.651 103.171 231.794C101.478 224.167 99.2376 218.288 92.4814 212.565C92.269 212.352 92.0566 212.138 91.8378 211.919C90.6888 211.163 89.5154 211.052 88.0807 210.818C86.1571 210.498 84.4351 210.114 82.6238 209.501C82.7493 209.909 82.7493 209.909 82.8772 210.325C83.9235 213.859 84.6647 217.413 85.3823 220.999C86.4682 226.417 87.6102 231.783 89.341 237.094C90.0707 239.43 90.1675 241.206 89.665 243.588C89.5101 243.588 89.3551 243.588 89.1955 243.588C89.1036 243.19 89.1036 243.19 89.0099 242.783C87.009 233.976 87.009 233.976 84.4923 225.261C83.9309 223.442 83.6316 221.603 83.3279 219.746C82.8909 217.147 82.4275 214.56 81.8409 211.98C81.6615 210.89 81.6595 209.833 81.685 208.735C80.3282 208.861 79.8174 209.11 78.8191 209.895C75.4712 213.568 75.5187 216.847 75.5827 221.278C75.5789 221.958 75.5734 222.639 75.5662 223.319C75.5523 224.969 75.5612 226.618 75.5827 228.268C75.4278 228.268 75.2729 228.268 75.1133 228.268C74.9584 227.51 74.8035 226.751 74.6439 225.97C74.489 225.97 74.3341 225.97 74.1745 225.97C74.1799 225.632 74.1854 225.295 74.191 224.947C74.2024 223.674 74.1968 222.402 74.1802 221.129C74.1764 220.582 74.1792 220.035 74.1889 219.488C74.2542 215.491 73.4229 212.899 69.9498 209.884C69.64 209.631 69.3302 209.378 69.011 209.118C68.6528 209.308 68.2946 209.497 67.9255 209.693C66.6639 210.267 66.6639 210.267 65.2557 210.267C65.2666 210.56 65.2775 210.853 65.2887 211.154C65.3451 213.884 65.103 216.469 64.6158 219.167C64.107 222.111 63.7953 225.077 63.4444 228.036C63.139 230.539 62.7466 233.005 62.2098 235.482C61.9871 236.607 61.8141 237.732 61.6562 238.864C61.3151 241.299 60.8576 243.685 60.2206 246.081C60.1484 246.352 60.0763 246.623 60.002 246.903C59.7055 248.007 59.4049 249.11 59.0975 250.213C57.6681 255.371 56.8073 260.102 59.3001 265.156C59.5919 265.784 59.8835 266.413 60.1747 267.042C60.3877 267.493 60.3877 267.493 60.605 267.953C61.042 268.889 61.4659 269.828 61.8727 270.774C61.9932 271.051 62.1137 271.329 62.2379 271.615C62.4393 272.313 62.4393 272.313 61.9699 273.079C62.101 273.721 62.2554 274.361 62.4393 274.994C61.8681 274.868 61.2969 274.741 60.7083 274.611C57.8549 274.083 55.022 274.162 52.1123 274.228C52.4084 272.379 52.8214 270.586 53.3463 268.772C53.4186 268.521 53.4909 268.269 53.5653 268.01C53.7935 267.218 54.0237 266.426 54.254 265.634C54.4103 265.093 54.5664 264.552 54.7225 264.01C55.1027 262.692 55.4846 261.375 55.8676 260.057C56.0225 260.057 56.1774 260.057 56.337 260.057C56.3043 259.73 56.2716 259.403 56.238 259.067C56.0577 255.67 56.5854 252.701 57.5985 249.405C61.4236 236.766 62.5503 223.559 64.3169 210.65C63.1863 210.749 62.0575 210.854 60.9284 210.963C60.6102 210.99 60.2921 211.017 59.9643 211.045C56.9422 211.346 55.3681 212.177 53.5205 214.097C49.3399 218.535 47.7067 223.647 46.6411 229.074C46.4748 229.919 46.3009 230.763 46.1248 231.607C45.8856 232.753 45.6483 233.9 45.4127 235.048C44.9164 237.452 44.387 239.851 43.839 242.248C43.7537 242.64 43.6683 243.032 43.5804 243.436C42.9018 246.38 41.8438 249.079 39.9957 251.679C38.4615 254.71 40.925 258.51 42.3116 261.359C45.1387 267.251 46.563 272.927 47.4182 279.207C48.1927 277.943 48.9673 276.679 49.7653 275.377C50.0751 275.503 50.3849 275.63 50.7041 275.76C50.3203 277.441 49.233 278.66 48.1095 280.076C46.6226 282.326 46.1548 284.907 45.5406 287.394C45.4631 287.692 45.3857 287.991 45.3059 288.299C43.9846 293.63 43.5056 298.918 43.5406 304.347C43.5456 305.276 43.5406 306.205 43.5346 307.134C43.5279 312.193 43.5824 317.443 46.098 322.151C46.2523 322.454 46.4067 322.758 46.5657 323.07C48.516 326.793 50.7912 330.403 53.0432 334.008C53.1949 334.251 53.3465 334.494 53.5028 334.744C53.9199 335.411 54.3389 336.077 54.7581 336.742C55.3982 337.806 55.3982 337.806 55.8676 338.955C56.2025 337.679 56.4345 336.431 56.5717 335.131C56.6298 334.593 56.6298 334.593 56.689 334.045C56.7278 333.675 56.7665 333.304 56.8064 332.923C57.2495 328.753 57.2495 328.753 57.5233 326.822C57.9536 323.725 58.0937 320.621 58.2146 317.507C58.2337 317.048 58.2529 316.588 58.2726 316.115C58.5528 308.334 57.938 300.787 56.7025 293.067C55.8994 288.003 55.4618 283.145 56.337 278.058C56.4919 278.058 56.6468 278.058 56.8064 278.058C56.8519 278.669 56.8519 278.669 56.8984 279.293C58.2939 297.672 61.5334 314.893 69.9498 332.061C70.2596 326.879 70.5694 321.697 70.8886 316.358C71.1984 316.864 71.5082 317.369 71.8274 317.89C71.8264 317.494 71.8254 317.098 71.8243 316.69C71.8146 312.873 71.8076 309.057 71.8031 305.24C71.8007 303.281 71.7975 301.321 71.792 299.361C71.7537 285.144 71.8763 270.944 73.0303 256.754C73.0964 255.904 73.1621 255.055 73.2274 254.206C73.3826 252.198 73.5424 250.191 73.7051 248.184C73.86 248.184 74.0149 248.184 74.1745 248.184C75.4844 260.193 76.2391 272.108 76.1988 284.162C76.1978 284.59 76.1978 284.589 76.1968 285.026C76.1923 286.936 76.1807 288.845 76.164 290.755C76.1604 291.236 76.1569 291.717 76.1532 292.212C76.1229 294.511 76.0216 296.772 75.6875 299.056C75.4912 300.616 75.5139 302.177 75.524 303.743C75.5264 304.299 75.5264 304.299 75.5288 304.866C75.5856 311.793 75.6837 318.751 76.5509 325.646C77.9776 337.773 77.0094 350.081 75.753 362.188C74.1574 371.77 74.1574 371.77 77.4585 380.623C79.2536 382.236 80.9496 382.371 83.5626 382.617C83.5626 382.743 83.5626 382.87 83.5626 383C80.0778 383.036 76.5929 383.063 73.1078 383.079C71.4892 383.087 69.8708 383.098 68.2523 383.116C66.388 383.136 64.5238 383.143 62.6593 383.15C61.7951 383.161 61.7951 383.161 60.9134 383.174C57.6114 383.174 55.3471 382.997 52.5817 381.468C51.2297 379.589 51.1883 377.846 51.6429 375.723C52.5526 373.712 53.7694 371.808 55.0001 369.917C57.7682 365.015 56.0648 358.001 53.876 353.149C53.502 352.319 53.1512 351.484 52.8036 350.647C51.4833 347.495 50.0767 344.366 48.4487 341.31C47.3859 339.209 46.9072 337.032 46.3932 334.806C46.1423 333.732 45.8621 332.666 45.5534 331.602C44.239 327.064 43.4225 322.516 42.7241 317.89C42.6424 317.43 42.5606 316.969 42.4764 316.495C42.1839 314.576 42.1786 312.666 42.1759 310.734C42.1735 310.152 42.1735 310.152 42.1711 309.558C42.1688 308.738 42.1677 307.918 42.1677 307.098C42.1667 305.865 42.1582 304.632 42.1493 303.4C42.1299 297.762 42.2532 292.199 44.191 286.747C46.694 278.907 44.9716 270.221 41.1344 262.885C39.918 260.521 38.9394 258.129 38.03 255.676C37.7884 255.03 37.7884 255.03 37.5418 254.37C36.2035 250.731 35.0653 247.07 34.058 243.362C33.8116 242.462 33.5551 241.563 33.2956 240.665C30.9674 232.525 29.9641 224.327 29.1113 216.012C29.065 215.599 29.0187 215.185 28.971 214.759C28.5243 210.403 28.528 206.042 28.5245 201.673C28.5241 201.258 28.5236 200.843 28.5231 200.415C28.5284 193.54 28.8983 186.826 30.0501 180.01C30.1254 179.562 30.2008 179.113 30.2784 178.652C30.7731 175.777 31.327 172.913 31.9277 170.052C31.9932 169.738 32.0586 169.423 32.126 169.099C32.8794 165.522 33.8053 162.009 35.2136 158.562C35.6057 154.073 34.853 150.003 33.5867 145.645C32.4431 141.673 31.9717 137.715 31.5262 133.654C30.9853 128.724 30.9853 128.724 29.0526 124.068C28.8039 123.635 28.8039 123.635 28.5502 123.193C28.4256 122.984 28.3009 122.775 28.1725 122.56C27.9544 123.062 27.74 123.565 27.527 124.068C27.4072 124.348 27.2874 124.628 27.164 124.916C25.9048 128.352 25.7056 131.459 25.7503 135.03C25.7534 135.574 25.7561 136.118 25.7583 136.662C25.7637 137.809 25.7716 138.956 25.7817 140.103C25.8046 142.77 25.8112 145.437 25.8178 148.103C25.8192 148.687 25.8208 149.271 25.8225 149.855C25.8351 154.323 25.8102 158.787 25.6494 163.254C25.6348 163.722 25.6203 164.19 25.6053 164.673C25.4107 169.337 24.695 173.942 23.4784 178.502C22.2337 183.46 21.5134 188.182 21.4541 193.247C21.4416 193.886 21.4416 193.886 21.4289 194.538C21.4313 196.782 21.6613 198.81 22.2994 200.996C23.1036 203.798 23.2103 206.471 23.2353 209.333C23.284 214.21 23.6211 218.891 24.8866 223.672C25.224 224.947 25.224 224.947 25.356 225.97C24.4172 226.736 24.4172 226.736 23.3024 226.904C22.0702 226.736 22.0702 226.736 20.9847 225.779C20.7233 225.463 20.4619 225.147 20.1925 224.821C19.8499 227.393 20.9642 229.132 22.5396 231.332C22.6945 231.458 22.8494 231.585 23.009 231.715C23.097 233.032 23.097 233.032 23.009 234.396C21.8416 235.349 21.3744 235.319 19.7525 235.377C15.4267 235.304 12.451 233.109 9.42549 230.781C5.0945 227.064 4.89081 222.963 4.96794 218.05C5.11463 215.301 5.83879 212.681 6.5797 210.004C8.26527 203.876 8.51744 198.961 6.82288 192.805C4.7091 184.794 3.62791 176.763 2.90465 168.604C2.84409 167.962 2.77657 167.321 2.7057 166.68C2.34921 163.312 2.27183 159.96 2.28168 156.583C2.28209 156.143 2.28209 156.143 2.2825 155.694C2.29621 148.05 2.68137 140.418 3.05914 132.781C3.6184 121.856 3.6184 121.856 3.88734 110.923C3.89493 110.2 3.90879 109.477 3.92295 108.755C3.92987 105.19 3.16156 101.994 1.59224 98.6704C-0.701567 93.7363 0.0557425 87.6376 2.63374 82.8791C8.06724 74.1953 18.4771 71.0965 28.8126 67.3845C33.3478 65.7526 37.8579 64.0751 42.3721 62.4051C43.6478 61.9334 44.9235 61.4619 46.1994 60.9906C46.9683 60.7065 47.7372 60.4223 48.5061 60.1379C50.9552 59.2329 53.4105 58.341 55.8676 57.45C55.8676 51.6361 55.8676 45.8221 55.8676 39.832C54.9381 39.832 54.0087 39.832 53.0511 39.832C50.1688 36.0524 48.3351 32.1005 49.2958 27.576C50.1026 26.6529 50.1026 26.6529 51.1735 26.044C52.4139 26.006 52.4139 26.006 53.5205 26.044C53.5131 25.7957 53.5058 25.5473 53.4982 25.2914C53.2851 17.0046 53.578 10.631 60.8349 4.31326C69.1461 -2.02986 80.668 -0.903117 89.665 3.83002Z"/>
</mask>
<path d="M89.665 3.83002C93.7833 6.40785 95.9697 10.1367 97.1755 14.171C97.2572 14.4003 97.339 14.6296 97.4233 14.8658C97.6789 15.8313 97.6978 16.7081 97.6907 17.6958C97.6892 18.071 97.6877 18.4463 97.6861 18.8328C97.6822 19.2219 97.6783 19.6109 97.6742 20.0118C97.6721 20.4067 97.67 20.8017 97.6678 21.2086C97.6623 22.1821 97.6546 23.1556 97.6449 24.129C98.0148 24.1829 98.3847 24.2368 98.7658 24.2923C100.157 24.5416 100.617 24.697 101.4 25.661C101.949 29.1394 101.661 32.85 99.1411 35.7626C97.5004 37.401 95.9342 38.2027 93.4202 38.683C92.5462 42.4077 92.2786 46.0396 92.2559 49.8233C92.2466 50.7572 92.2173 51.69 92.188 52.6236C92.1819 53.223 92.177 53.8225 92.1734 54.4219C92.156 54.8361 92.156 54.8361 92.1382 55.2586C92.1499 56.3394 92.2208 57.1934 93.085 58.0442C94.5419 59.0587 96.0795 59.7487 97.8503 60.3225C98.3464 60.484 98.8426 60.6454 99.3538 60.8117C100.914 61.2749 102.483 61.6731 104.07 62.07C116.44 65.2735 138.016 72.6351 144.531 82.5156C148.047 89.0753 146.34 98.3487 143.647 104.942C143.238 108.236 144.006 111.155 145.068 114.3C146.095 117.372 146.147 120.354 146.17 123.518C146.172 123.8 146.175 124.082 146.177 124.373C146.193 129.227 145.452 133.62 143.647 138.263C143.036 139.882 142.571 141.306 142.561 143.003C142.554 143.329 142.546 143.656 142.538 143.993C142.731 145.314 143.193 146.442 143.728 147.694C148.438 158.738 146.837 170.922 145.055 182.308C144.961 182.917 144.961 182.917 144.865 183.538C144.49 185.941 144.082 188.338 143.647 190.734C143.599 191 143.551 191.266 143.502 191.54C142.831 195.254 142.831 195.254 142.477 196.577C141.55 200.659 141.74 204.919 141.773 209.052C141.778 209.767 141.778 209.767 141.784 210.497C141.801 212.488 141.821 214.478 141.85 216.469C141.87 217.938 141.881 219.408 141.89 220.877C141.903 221.542 141.903 221.542 141.917 222.22C141.936 227.172 140.768 231.079 136.606 234.779C133.954 236.858 131.654 237.331 128.015 237.307C126.446 237.022 125.876 236.548 124.871 235.545C124.203 234.456 124.289 233.695 124.401 232.481C124.624 232.079 124.848 231.677 125.078 231.263C125.92 229.722 126.163 228.236 126.367 226.568C126.424 226.148 126.424 226.148 126.483 225.719C126.576 225.037 126.663 224.355 126.748 223.672C125.229 224.895 123.828 226.122 122.524 227.502C121.749 227.376 120.974 227.249 120.176 227.119C119.666 225.562 119.787 224.453 120.211 222.887C120.39 222.217 120.39 222.217 120.572 221.534C120.703 221.062 120.834 220.591 120.969 220.105C121.1 219.622 121.232 219.138 121.367 218.64C121.747 217.252 122.135 215.866 122.524 214.48C122.659 213.984 122.659 213.984 122.798 213.478C123.667 210.308 124.801 207.276 126.271 204.258C129.689 197.228 127.652 188.984 125.34 181.925C125.247 181.64 125.155 181.354 125.06 181.06C124.665 179.847 124.262 178.636 123.857 177.425C123.243 175.489 122.852 173.564 122.524 171.584C122.443 171.12 122.362 170.656 122.278 170.178C121.208 163.332 121.515 156.423 121.585 149.538C122.338 138.01 122.338 138.01 120.176 126.773C116.797 133.49 115.396 140.699 114.074 147.838C114.003 148.211 113.931 148.584 113.857 148.968C112.492 156.117 112.351 162.25 114.544 169.286C121.492 192.2 122.602 216.462 116.656 239.662C116.455 240.458 116.255 241.254 116.054 242.05C115.957 242.434 115.86 242.818 115.761 243.214C115.49 244.322 115.246 245.432 115.007 246.544C114.606 248.367 114.082 250.138 113.458 251.918C113.305 252.358 113.305 252.358 113.149 252.807C111.551 257.345 109.729 261.608 107.033 265.802C103.924 271.248 103.924 271.248 102.746 277.098C102.745 277.428 102.744 277.759 102.743 278.099C102.746 278.624 102.746 278.624 102.75 279.159C102.751 279.519 102.752 279.879 102.752 280.25C102.771 282.717 102.922 285.149 103.171 287.608C103.464 290.835 103.235 293.996 102.808 297.208C102.653 297.208 102.499 297.208 102.339 297.208C102.304 296.493 102.304 296.493 102.269 295.763C102.178 293.976 102.064 292.189 101.944 290.403C101.895 289.633 101.852 288.863 101.816 288.093C101.603 282.228 101.603 282.228 98.1473 277.249C96.8017 276.248 95.5581 275.59 93.8896 274.994C93.8896 274.741 93.8896 274.488 93.8896 274.228C91.0388 274.034 89.3024 274.595 86.8485 275.76C87.1038 274.2 87.5325 272.981 88.3741 271.571C90.3235 267.921 91.0703 263.945 92.012 260.057C92.962 261.22 93.131 261.734 93.3505 263.078C93.411 263.437 93.4716 263.796 93.5339 264.166C93.5932 264.54 93.6525 264.914 93.7136 265.299C93.808 265.867 93.808 265.867 93.9043 266.446C94.0591 267.38 94.2106 268.314 94.359 269.249C94.6688 268.87 94.9787 268.491 95.2979 268.1C95.3614 268.374 95.4249 268.648 95.4904 268.93C96.2881 271.943 97.6907 275.797 100.461 278.058C100.526 277.721 100.591 277.385 100.658 277.038C101.75 272.221 104.152 267.9 106.599 263.463C109.579 259.031 109.579 259.031 109.85 254.312C109.495 253.734 109.133 253.158 108.766 252.586C106.954 249.38 106.364 245.936 105.595 242.487C105.432 241.777 105.268 241.068 105.103 240.359C104.442 237.506 103.802 234.651 103.171 231.794C101.478 224.167 99.2376 218.288 92.4814 212.565C92.269 212.352 92.0566 212.138 91.8378 211.919C90.6888 211.163 89.5154 211.052 88.0807 210.818C86.1571 210.498 84.4351 210.114 82.6238 209.501C82.7493 209.909 82.7493 209.909 82.8772 210.325C83.9235 213.859 84.6647 217.413 85.3823 220.999C86.4682 226.417 87.6102 231.783 89.341 237.094C90.0707 239.43 90.1675 241.206 89.665 243.588C89.5101 243.588 89.3551 243.588 89.1955 243.588C89.1036 243.19 89.1036 243.19 89.0099 242.783C87.009 233.976 87.009 233.976 84.4923 225.261C83.9309 223.442 83.6316 221.603 83.3279 219.746C82.8909 217.147 82.4275 214.56 81.8409 211.98C81.6615 210.89 81.6595 209.833 81.685 208.735C80.3282 208.861 79.8174 209.11 78.8191 209.895C75.4712 213.568 75.5187 216.847 75.5827 221.278C75.5789 221.958 75.5734 222.639 75.5662 223.319C75.5523 224.969 75.5612 226.618 75.5827 228.268C75.4278 228.268 75.2729 228.268 75.1133 228.268C74.9584 227.51 74.8035 226.751 74.6439 225.97C74.489 225.97 74.3341 225.97 74.1745 225.97C74.1799 225.632 74.1854 225.295 74.191 224.947C74.2024 223.674 74.1968 222.402 74.1802 221.129C74.1764 220.582 74.1792 220.035 74.1889 219.488C74.2542 215.491 73.4229 212.899 69.9498 209.884C69.64 209.631 69.3302 209.378 69.011 209.118C68.6528 209.308 68.2946 209.497 67.9255 209.693C66.6639 210.267 66.6639 210.267 65.2557 210.267C65.2666 210.56 65.2775 210.853 65.2887 211.154C65.3451 213.884 65.103 216.469 64.6158 219.167C64.107 222.111 63.7953 225.077 63.4444 228.036C63.139 230.539 62.7466 233.005 62.2098 235.482C61.9871 236.607 61.8141 237.732 61.6562 238.864C61.3151 241.299 60.8576 243.685 60.2206 246.081C60.1484 246.352 60.0763 246.623 60.002 246.903C59.7055 248.007 59.4049 249.11 59.0975 250.213C57.6681 255.371 56.8073 260.102 59.3001 265.156C59.5919 265.784 59.8835 266.413 60.1747 267.042C60.3877 267.493 60.3877 267.493 60.605 267.953C61.042 268.889 61.4659 269.828 61.8727 270.774C61.9932 271.051 62.1137 271.329 62.2379 271.615C62.4393 272.313 62.4393 272.313 61.9699 273.079C62.101 273.721 62.2554 274.361 62.4393 274.994C61.8681 274.868 61.2969 274.741 60.7083 274.611C57.8549 274.083 55.022 274.162 52.1123 274.228C52.4084 272.379 52.8214 270.586 53.3463 268.772C53.4186 268.521 53.4909 268.269 53.5653 268.01C53.7935 267.218 54.0237 266.426 54.254 265.634C54.4103 265.093 54.5664 264.552 54.7225 264.01C55.1027 262.692 55.4846 261.375 55.8676 260.057C56.0225 260.057 56.1774 260.057 56.337 260.057C56.3043 259.73 56.2716 259.403 56.238 259.067C56.0577 255.67 56.5854 252.701 57.5985 249.405C61.4236 236.766 62.5503 223.559 64.3169 210.65C63.1863 210.749 62.0575 210.854 60.9284 210.963C60.6102 210.99 60.2921 211.017 59.9643 211.045C56.9422 211.346 55.3681 212.177 53.5205 214.097C49.3399 218.535 47.7067 223.647 46.6411 229.074C46.4748 229.919 46.3009 230.763 46.1248 231.607C45.8856 232.753 45.6483 233.9 45.4127 235.048C44.9164 237.452 44.387 239.851 43.839 242.248C43.7537 242.64 43.6683 243.032 43.5804 243.436C42.9018 246.38 41.8438 249.079 39.9957 251.679C38.4615 254.71 40.925 258.51 42.3116 261.359C45.1387 267.251 46.563 272.927 47.4182 279.207C48.1927 277.943 48.9673 276.679 49.7653 275.377C50.0751 275.503 50.3849 275.63 50.7041 275.76C50.3203 277.441 49.233 278.66 48.1095 280.076C46.6226 282.326 46.1548 284.907 45.5406 287.394C45.4631 287.692 45.3857 287.991 45.3059 288.299C43.9846 293.63 43.5056 298.918 43.5406 304.347C43.5456 305.276 43.5406 306.205 43.5346 307.134C43.5279 312.193 43.5824 317.443 46.098 322.151C46.2523 322.454 46.4067 322.758 46.5657 323.07C48.516 326.793 50.7912 330.403 53.0432 334.008C53.1949 334.251 53.3465 334.494 53.5028 334.744C53.9199 335.411 54.3389 336.077 54.7581 336.742C55.3982 337.806 55.3982 337.806 55.8676 338.955C56.2025 337.679 56.4345 336.431 56.5717 335.131C56.6298 334.593 56.6298 334.593 56.689 334.045C56.7278 333.675 56.7665 333.304 56.8064 332.923C57.2495 328.753 57.2495 328.753 57.5233 326.822C57.9536 323.725 58.0937 320.621 58.2146 317.507C58.2337 317.048 58.2529 316.588 58.2726 316.115C58.5528 308.334 57.938 300.787 56.7025 293.067C55.8994 288.003 55.4618 283.145 56.337 278.058C56.4919 278.058 56.6468 278.058 56.8064 278.058C56.8519 278.669 56.8519 278.669 56.8984 279.293C58.2939 297.672 61.5334 314.893 69.9498 332.061C70.2596 326.879 70.5694 321.697 70.8886 316.358C71.1984 316.864 71.5082 317.369 71.8274 317.89C71.8264 317.494 71.8254 317.098 71.8243 316.69C71.8146 312.873 71.8076 309.057 71.8031 305.24C71.8007 303.281 71.7975 301.321 71.792 299.361C71.7537 285.144 71.8763 270.944 73.0303 256.754C73.0964 255.904 73.1621 255.055 73.2274 254.206C73.3826 252.198 73.5424 250.191 73.7051 248.184C73.86 248.184 74.0149 248.184 74.1745 248.184C75.4844 260.193 76.2391 272.108 76.1988 284.162C76.1978 284.59 76.1978 284.589 76.1968 285.026C76.1923 286.936 76.1807 288.845 76.164 290.755C76.1604 291.236 76.1569 291.717 76.1532 292.212C76.1229 294.511 76.0216 296.772 75.6875 299.056C75.4912 300.616 75.5139 302.177 75.524 303.743C75.5264 304.299 75.5264 304.299 75.5288 304.866C75.5856 311.793 75.6837 318.751 76.5509 325.646C77.9776 337.773 77.0094 350.081 75.753 362.188C74.1574 371.77 74.1574 371.77 77.4585 380.623C79.2536 382.236 80.9496 382.371 83.5626 382.617C83.5626 382.743 83.5626 382.87 83.5626 383C80.0778 383.036 76.5929 383.063 73.1078 383.079C71.4892 383.087 69.8708 383.098 68.2523 383.116C66.388 383.136 64.5238 383.143 62.6593 383.15C61.7951 383.161 61.7951 383.161 60.9134 383.174C57.6114 383.174 55.3471 382.997 52.5817 381.468C51.2297 379.589 51.1883 377.846 51.6429 375.723C52.5526 373.712 53.7694 371.808 55.0001 369.917C57.7682 365.015 56.0648 358.001 53.876 353.149C53.502 352.319 53.1512 351.484 52.8036 350.647C51.4833 347.495 50.0767 344.366 48.4487 341.31C47.3859 339.209 46.9072 337.032 46.3932 334.806C46.1423 333.732 45.8621 332.666 45.5534 331.602C44.239 327.064 43.4225 322.516 42.7241 317.89C42.6424 317.43 42.5606 316.969 42.4764 316.495C42.1839 314.576 42.1786 312.666 42.1759 310.734C42.1735 310.152 42.1735 310.152 42.1711 309.558C42.1688 308.738 42.1677 307.918 42.1677 307.098C42.1667 305.865 42.1582 304.632 42.1493 303.4C42.1299 297.762 42.2532 292.199 44.191 286.747C46.694 278.907 44.9716 270.221 41.1344 262.885C39.918 260.521 38.9394 258.129 38.03 255.676C37.7884 255.03 37.7884 255.03 37.5418 254.37C36.2035 250.731 35.0653 247.07 34.058 243.362C33.8116 242.462 33.5551 241.563 33.2956 240.665C30.9674 232.525 29.9641 224.327 29.1113 216.012C29.065 215.599 29.0187 215.185 28.971 214.759C28.5243 210.403 28.528 206.042 28.5245 201.673C28.5241 201.258 28.5236 200.843 28.5231 200.415C28.5284 193.54 28.8983 186.826 30.0501 180.01C30.1254 179.562 30.2008 179.113 30.2784 178.652C30.7731 175.777 31.327 172.913 31.9277 170.052C31.9932 169.738 32.0586 169.423 32.126 169.099C32.8794 165.522 33.8053 162.009 35.2136 158.562C35.6057 154.073 34.853 150.003 33.5867 145.645C32.4431 141.673 31.9717 137.715 31.5262 133.654C30.9853 128.724 30.9853 128.724 29.0526 124.068C28.8039 123.635 28.8039 123.635 28.5502 123.193C28.4256 122.984 28.3009 122.775 28.1725 122.56C27.9544 123.062 27.74 123.565 27.527 124.068C27.4072 124.348 27.2874 124.628 27.164 124.916C25.9048 128.352 25.7056 131.459 25.7503 135.03C25.7534 135.574 25.7561 136.118 25.7583 136.662C25.7637 137.809 25.7716 138.956 25.7817 140.103C25.8046 142.77 25.8112 145.437 25.8178 148.103C25.8192 148.687 25.8208 149.271 25.8225 149.855C25.8351 154.323 25.8102 158.787 25.6494 163.254C25.6348 163.722 25.6203 164.19 25.6053 164.673C25.4107 169.337 24.695 173.942 23.4784 178.502C22.2337 183.46 21.5134 188.182 21.4541 193.247C21.4416 193.886 21.4416 193.886 21.4289 194.538C21.4313 196.782 21.6613 198.81 22.2994 200.996C23.1036 203.798 23.2103 206.471 23.2353 209.333C23.284 214.21 23.6211 218.891 24.8866 223.672C25.224 224.947 25.224 224.947 25.356 225.97C24.4172 226.736 24.4172 226.736 23.3024 226.904C22.0702 226.736 22.0702 226.736 20.9847 225.779C20.7233 225.463 20.4619 225.147 20.1925 224.821C19.8499 227.393 20.9642 229.132 22.5396 231.332C22.6945 231.458 22.8494 231.585 23.009 231.715C23.097 233.032 23.097 233.032 23.009 234.396C21.8416 235.349 21.3744 235.319 19.7525 235.377C15.4267 235.304 12.451 233.109 9.42549 230.781C5.0945 227.064 4.89081 222.963 4.96794 218.05C5.11463 215.301 5.83879 212.681 6.5797 210.004C8.26527 203.876 8.51744 198.961 6.82288 192.805C4.7091 184.794 3.62791 176.763 2.90465 168.604C2.84409 167.962 2.77657 167.321 2.7057 166.68C2.34921 163.312 2.27183 159.96 2.28168 156.583C2.28209 156.143 2.28209 156.143 2.2825 155.694C2.29621 148.05 2.68137 140.418 3.05914 132.781C3.6184 121.856 3.6184 121.856 3.88734 110.923C3.89493 110.2 3.90879 109.477 3.92295 108.755C3.92987 105.19 3.16156 101.994 1.59224 98.6704C-0.701567 93.7363 0.0557425 87.6376 2.63374 82.8791C8.06724 74.1953 18.4771 71.0965 28.8126 67.3845C33.3478 65.7526 37.8579 64.0751 42.3721 62.4051C43.6478 61.9334 44.9235 61.4619 46.1994 60.9906C46.9683 60.7065 47.7372 60.4223 48.5061 60.1379C50.9552 59.2329 53.4105 58.341 55.8676 57.45C55.8676 51.6361 55.8676 45.8221 55.8676 39.832C54.9381 39.832 54.0087 39.832 53.0511 39.832C50.1688 36.0524 48.3351 32.1005 49.2958 27.576C50.1026 26.6529 50.1026 26.6529 51.1735 26.044C52.4139 26.006 52.4139 26.006 53.5205 26.044C53.5131 25.7957 53.5058 25.5473 53.4982 25.2914C53.2851 17.0046 53.578 10.631 60.8349 4.31326C69.1461 -2.02986 80.668 -0.903117 89.665 3.83002Z" stroke="black" stroke-width="2" mask="url(#path-1-inside-1_1130_2655)"/>
<path d="M94 274.5C94 274.5 91.7574 290.651 90 301M90 301C89.1551 309.388 87.5257 314.131 84.5 322C82.3061 327.705 77 337.5 77 337.5M90 301C89.6614 309.194 89.1614 313.806 89.5 322C89.8073 329.437 91 341 91 341" stroke="black"/>
<path d="M73.9762 251.086C75.0223 261.369 75.6471 271.593 75.6969 281.906L75.6989 284.161C75.6982 284.445 75.6976 284.731 75.6969 285.025C75.6946 285.979 75.6907 286.933 75.6852 287.887L75.6637 290.751C75.6602 291.231 75.6566 291.711 75.653 292.205C75.6228 294.495 75.5224 296.731 75.193 298.984L75.192 298.994C75.0411 300.192 75.0167 301.391 75.0182 302.572L75.024 303.746L75.0289 304.868V304.87C75.0857 311.793 75.1835 318.778 76.0543 325.703V325.704C77.4733 337.766 76.5117 350.02 75.2565 362.119C74.4645 366.875 74.0518 369.343 74.2721 371.725C74.4929 374.111 75.3486 376.396 76.9899 380.797L77.0328 380.912L77.1246 380.995C77.9717 381.756 78.805 382.21 79.692 382.5H68.4508C68.7019 382.421 68.9991 382.33 69.3922 382.209L69.4108 382.203L69.4283 382.197C70.3443 381.836 71.0036 381.517 71.5758 381.098C72.1499 380.677 72.6121 380.174 73.1588 379.48L73.2321 379.387L73.2555 379.272C73.3792 378.678 73.4523 378.335 73.4752 377.978C73.4866 377.8 73.4857 377.62 73.4762 377.406L73.4264 376.622C73.4016 375.927 73.4013 375.921 73.3756 375.2V375.189L73.3746 375.179L73.3229 374.567C73.1934 373.141 73.0008 371.733 72.7643 370.319C71.4802 362.596 71.6793 354.843 71.734 346.997V346.996C71.7429 345.471 71.745 343.945 71.7467 342.421C71.763 329.579 71.7628 329.59 72.0992 323.257C72.336 318.787 72.3655 314.327 72.3571 309.867C72.3564 309.509 72.3558 309.151 72.3551 308.782C72.3485 305.813 72.3359 302.844 72.3229 299.876C72.261 285.488 72.3626 271.136 73.5289 256.794V256.792C73.595 255.943 73.6608 255.094 73.7262 254.245C73.8076 253.192 73.8925 252.139 73.9762 251.086Z" fill="#F6F6F6" stroke="black"/>
<path d="M75.5 118C75.5 118 79 123 81 127.5C84.2201 134.745 86.9498 145.719 89 152C91.0502 158.281 94 164.5 94 164.5" stroke="black"/>
<path d="M72 118.5C72 118.5 69 123.5 67 128C63.7799 135.245 61.0502 146.219 59 152.5C56.9498 158.781 54 165 54 165" stroke="black"/>
<path d="M102.339 321.72C102.494 321.72 102.649 321.72 102.808 321.72C104.51 328.166 101.228 336.489 98.0356 342.398C93.4145 351.503 89.6428 362.019 94.4425 371.566C95.353 373.24 96.3863 374.857 97.478 376.456C98.169 377.739 98.2891 378.551 98.1143 379.936C97.1943 381.403 96.1165 381.996 94.271 382.545C89.8632 383.484 83.6076 383.676 79.338 382.234C76.9573 381.047 76.1305 379.89 75.3682 377.783C74.7976 375.743 74.5903 373.844 74.6146 371.749C74.6188 371.272 74.623 370.795 74.6274 370.304C74.6328 369.944 74.6383 369.583 74.6439 369.212C75.1086 369.022 75.1086 369.022 75.5827 368.829C75.6013 369.055 75.6199 369.28 75.6391 369.513C75.7296 370.554 75.8321 371.594 75.9348 372.635C75.9638 372.99 75.9929 373.344 76.0228 373.71C76.2655 376.061 76.6988 378.35 78.3992 380.319C80.1867 381.443 81.5385 381.615 83.768 381.621C84.3429 381.622 84.9177 381.624 85.51 381.625C86.1066 381.621 86.7032 381.616 87.3179 381.612C87.9145 381.616 88.5112 381.62 89.1259 381.625C89.7007 381.624 90.2756 381.622 90.8678 381.621C91.3912 381.619 91.9146 381.618 92.4539 381.617C94.0726 381.449 94.9649 381.149 96.2367 380.319C96.6923 377.853 95.8708 376.272 94.4177 374.143C89.6113 366.868 90.0765 358.337 92.9313 350.551C94.2073 347.275 95.584 344.024 97.0036 340.787C99.6222 334.785 102.018 328.529 101.87 322.103C102.024 321.977 102.179 321.85 102.339 321.72Z" fill="#292929"/>
<path d="M45.0712 283.42C46.2536 284.867 45.9297 285.642 45.5406 287.25C43.8352 294.389 43.4258 301.439 43.1936 308.698C43.0387 308.698 42.8838 308.698 42.7242 308.698C41.9244 299.935 42.3752 291.952 45.0712 283.42Z" fill="#2F2F2F"/>
<path d="M71.3581 379.17C71.6679 379.549 71.9777 379.928 72.2969 380.319C69.0745 382.817 66.162 383.059 61.8232 383.096C61.4917 383.099 61.1602 383.103 60.8186 383.107C59.0695 383.098 58.2978 383.045 56.8064 382.234C57.1187 382.217 57.431 382.2 57.7528 382.182C59.1785 382.101 60.6035 382.012 62.0286 381.923C62.7656 381.882 62.7656 381.882 63.5175 381.841C66.0911 381.675 68.2233 381.532 70.4192 380.319C70.729 379.94 71.0389 379.561 71.3581 379.17Z" fill="#1F1F1F"/>
<path d="M52.5818 374.191C52.8916 374.191 53.2014 374.191 53.5206 374.191C53.4431 374.436 53.3657 374.681 53.2859 374.933C52.9733 376.495 52.7403 377.98 53.0512 379.553C54.1761 380.812 54.8844 381.347 56.7184 381.779C57.0573 381.803 57.3961 381.827 57.7452 381.851C57.9001 382.23 58.0551 382.609 58.2147 383C55.9921 382.822 54.3701 382.594 52.5818 381.468C51.6285 380.246 51.5159 379.264 51.5256 377.829C51.5232 377.47 51.5207 377.111 51.5182 376.74C51.6448 375.707 51.9371 375.076 52.5818 374.191Z" fill="#222222"/>
<path d="M62.4393 226.353C62.5942 226.353 62.7491 226.353 62.9087 226.353C63.1049 230.48 62.5894 234.202 61.5005 238.226C61.3456 238.226 61.1907 238.226 61.0311 238.226C60.908 235.643 61.0999 233.129 61.4712 230.566C61.5119 230.282 61.5527 229.998 61.5947 229.705C61.7727 228.536 61.9814 227.474 62.4393 226.353Z" fill="#2A2A2A"/>
<path d="M96.7062 378.021C96.8611 378.021 97.016 378.021 97.1756 378.021C97.557 379.266 97.557 379.266 97.645 380.702C96.1046 382.149 94.7538 382.42 92.4815 382.617C90.7762 382.607 89.0787 382.531 87.3767 382.449C86.9192 382.429 86.4618 382.409 85.9904 382.389C84.8681 382.339 83.746 382.288 82.6239 382.234C82.6239 382.108 82.6239 381.981 82.6239 381.851C82.9529 381.845 83.2819 381.84 83.6208 381.834C85.1175 381.805 86.6137 381.768 88.1101 381.731C88.6278 381.723 89.1454 381.714 89.6788 381.705C90.1795 381.692 90.6802 381.678 91.1961 381.664C91.6558 381.654 92.1155 381.644 92.5891 381.634C94.1111 381.44 95.0139 381.078 96.2367 380.319C96.6555 379.133 96.6555 379.133 96.7062 378.021Z" fill="#474747"/>
<path d="M52.5818 379.553C52.9981 379.861 53.4144 380.169 53.8433 380.487C55.1085 381.355 56.0651 381.73 57.7453 381.851C57.9002 382.23 58.0551 382.609 58.2147 383C55.995 382.822 54.3742 382.586 52.5818 381.468C52.4269 381.089 52.272 380.71 52.1124 380.319C52.2673 380.066 52.4222 379.813 52.5818 379.553Z" fill="#3A3A3A"/>
<path d="M54.9288 338.955C55.5484 338.955 56.168 338.955 56.8064 338.955C56.6515 339.84 56.4966 340.724 56.337 341.636C56.0272 341.636 55.7174 341.636 55.3982 341.636C55.2433 340.751 55.0884 339.867 54.9288 338.955Z" fill="#1C1C1C"/>
<path d="M142.708 104.559C142.863 104.559 143.018 104.559 143.178 104.559C143.178 106.455 143.178 108.351 143.178 110.304C142.713 110.178 142.248 110.051 141.769 109.921C141.769 109.668 141.769 109.415 141.769 109.155C142.079 109.155 142.389 109.155 142.708 109.155C142.708 107.638 142.708 106.122 142.708 104.559Z" fill="#050505"/>
<path d="M97.1755 18.767C97.3304 18.767 97.4853 18.767 97.6449 18.767C97.6449 20.5364 97.6449 22.3059 97.6449 24.129C97.9547 24.2554 98.2646 24.3817 98.5837 24.512C97.9641 24.6384 97.3445 24.7647 96.7061 24.895C96.861 22.8727 97.0159 20.8505 97.1755 18.767Z" fill="#080808"/>
<path d="M13.6208 233.247C16.3199 233.582 16.3199 233.582 17.3761 234.013C17.3761 234.266 17.3761 234.519 17.3761 234.779C17.8408 234.905 18.3055 235.032 18.7843 235.162C16.4966 234.988 15.3152 234.507 13.6208 233.247Z" fill="#343434"/>
<path d="M55 164C55 164 50.1718 166.785 48 169.5C40 179.5 41.7182 179.038 37.5 187M37.5 187C33.0629 195.375 29 204 29 204C29 204 34.1805 193.421 37.5 187Z" stroke="black"/>
<path d="M94 164.5C94 164.5 97.2074 167.08 99 169C103.07 173.36 103.324 175.633 107.017 182M107.017 182C112.809 191.989 119.5 204 119.5 204C119.5 204 111.892 190.592 107.017 182Z" stroke="black"/>
<path d="M48.9281 207.096C48.9281 207.162 48.9281 207.297 48.9531 207.432C48.9609 207.474 49.028 207.433 49.0705 207.374C49.2752 207.09 49.3987 206.694 49.408 206.423C49.4095 206.381 49.333 206.389 49.2573 206.431C48.799 206.683 48.5423 207.362 48.3815 207.885C48.3362 208.032 48.3393 208.22 48.3641 208.289C48.3954 208.377 48.6908 208.007 48.9432 207.695C49.1607 207.426 48.8947 208.541 48.9276 208.887C48.9349 208.965 49.0775 208.98 49.204 208.964C49.8319 208.884 50.2394 208.36 50.4249 208.141C50.4751 208.082 50.3772 208.088 50.2926 208.147C49.8955 208.422 49.8036 208.778 49.7448 208.904C49.7175 208.963 49.7026 209.013 49.7607 209.014C50.5573 209.025 51.283 207.788 51.4267 207.577C51.8859 206.903 49.839 209.231 49.7102 209.378C48.9187 210.281 50.2914 207.988 50.258 207.879C50.2423 207.827 50.1581 207.82 50.0404 207.853C49.2283 208.081 48.7266 208.829 48.7175 208.905C48.6565 209.415 49.6501 208.209 49.8776 207.914C49.9464 207.825 49.8884 207.836 49.796 207.895C49.5631 208.042 49.233 208.356 48.9134 208.684C48.7911 208.809 48.7604 208.862 48.8766 208.846C49.683 208.736 49.9541 208.409 50.0384 208.383C50.1581 208.347 49.9551 208.661 49.9296 208.745C49.8542 208.993 50.8932 208.428 51.5133 208.153C52.081 207.901 50.0611 210.03 49.5363 210.726C49.0114 211.421 49.0947 211.405 49.4875 211.155C49.8804 210.904 50.5802 210.421 50.8157 210.331C51.0513 210.24 50.8013 210.557 51.1058 210.345C52.3496 209.479 53.0861 208.644 52.7599 208.878C52.504 209.061 52.1172 209.445 52.2611 209.35C52.405 209.256 53.1048 208.689 52.9154 208.906C52.7261 209.122 51.6264 210.138 51.0265 210.687C50.4267 211.236 50.36 211.286 50.559 211.003C51.203 210.089 51.7551 209.419 51.7726 209.377C51.8359 209.222 51.3699 209.619 51.1013 209.838C50.9618 209.951 50.8326 210.089 51.0889 209.791C51.984 208.75 52.6978 207.938 52.665 207.904C52.1143 207.328 51.6213 208.913 51.6375 208.947C51.6597 208.994 51.8203 208.848 52.2888 208.497C52.7574 208.146 53.5572 207.529 53.9526 207.245C54.3479 206.96 54.3146 207.027 54.0225 207.403C53.1923 208.471 52.5807 209.233 52.5802 209.342C52.5795 209.487 53.1659 209.185 53.746 208.807C53.974 208.658 54.0763 208.612 53.7195 208.944C53.3628 209.277 52.5463 209.993 52.2924 210.295C52.0384 210.598 52.3716 210.465 53.0182 210.163C53.6647 209.861 54.6145 209.394 55.1371 209.146C55.6597 208.897 55.7263 208.88 55.719 208.872C55.6599 208.802 54.7761 209.246 53.5898 209.844C53.1688 210.056 53.1199 210.091 53.6024 209.9C54.0848 209.709 55.1012 209.292 55.7915 209.028C56.4817 208.763 56.815 208.663 56.5117 208.895C56.2085 209.127 55.2588 209.693 54.8445 209.968C54.4302 210.243 54.5802 210.21 54.824 210.118C55.0679 210.026 55.4012 209.876 55.4062 209.907C55.5653 210.885 54.1136 210.664 53.7938 210.765C53.6649 210.805 53.4431 210.782 53.3898 210.765C53.1529 210.691 53.8581 210.647 54.1108 210.588C54.4743 210.503 54.6832 210.445 54.8854 210.336C55.0811 210.23 55.2891 210.142 56.6647 209.74C57.124 209.587 57.3093 209.503 57.4267 209.436C57.4941 209.386 57.5774 209.302 57.7137 209.115" stroke="#F5F4F4" stroke-linecap="round"/>
<path d="M60.4403 208.56C60.3232 208.56 60.0545 208.627 59.8351 208.72C59.6097 208.815 59.381 208.896 59.0866 208.964C58.8269 209.023 58.6236 209.048 58.4214 209.124C58.206 209.204 58.0177 209.3 57.8155 209.376C57.6001 209.457 57.4118 209.586 57.1676 209.713C56.9632 209.818 56.7554 209.906 56.5532 209.974C56.3454 210.043 56.1495 210.159 55.9472 210.218C55.7516 210.275 55.5436 210.31 55.3413 210.378C55.1336 210.447 54.9377 210.596 54.7854 210.689C54.7201 210.729 55.0694 210.782 55.3721 210.757C55.6856 210.731 56.0778 210.196 56.4421 209.924C56.6425 209.774 56.8543 209.655 57.0566 209.57C57.2532 209.488 57.4602 209.436 57.6625 209.368C57.8647 209.301 58.1328 209.267 58.3777 209.217C58.5052 209.191 58.6221 209.149 58.6728 209.141C58.8391 209.113 58.3206 209.25 58.0765 209.359C57.8766 209.449 57.6642 209.452 57.4454 209.511C57.2996 209.55 57.1588 209.536 57.1081 209.57C56.8811 209.72 57.847 209.587 58.0664 209.52C58.2702 209.457 58.4701 209.385 58.6723 209.318C58.8745 209.25 59.076 209.183 59.2199 209.124C59.3985 209.051 58.8256 209.199 58.5814 209.267C58.3681 209.326 58.1692 209.401 57.9669 209.469C57.7647 209.536 57.5633 209.637 57.361 209.729C57.3095 209.753 57.2603 209.788 57.2762 209.797C57.5136 209.929 57.8803 209.655 58.1169 209.612C58.3202 209.575 58.5206 209.537 58.8566 209.444C58.9745 209.402 59.1245 209.336 59.3517 209.268C59.5789 209.2 59.8788 209.134 60.1878 209.065" stroke="#F5F4F4" stroke-linecap="round"/>
<path d="M67.1423 369.018C67.2071 369.018 67.3801 368.997 67.5758 368.948C67.8012 368.892 67.9878 368.759 68.1515 368.661C68.2937 368.575 68.4444 368.487 68.5749 368.395C68.7164 368.294 68.8353 368.215 68.9657 368.139C69.1141 368.053 69.2587 367.89 69.3889 367.722C69.6218 367.421 69.8768 367.218 70.0135 367.027C70.1441 366.844 70.3009 366.653 70.4097 366.495C70.5544 366.285 70.6376 366.153 70.6976 365.996C70.7521 365.852 70.8331 365.73 70.92 365.572C70.9999 365.427 71.061 365.274 71.121 365.133C71.1983 364.95 71.2565 364.818 71.311 364.687C71.3641 364.56 71.3763 364.405 71.4087 364.237C71.4351 364.1 71.4629 363.971 71.5064 363.84C71.549 363.713 71.5607 363.58 71.6041 363.396C71.6405 363.241 71.6694 363.049 71.6965 362.885C71.702 362.788 71.7235 362.69 71.7668 362.608C71.7886 362.57 71.8101 362.538 71.8974 362.472" stroke="#050405" stroke-linecap="round"/>
<path d="M71.0562 117C70.5563 113.5 73.5562 82 73.5562 82C73.5562 82 77.0563 113 76.0562 117C75.7213 118.339 74.9369 119.5 73.5562 119.5C72.1755 119.5 71.2514 118.367 71.0562 117Z" stroke="black"/>
<path d="M46 78C46 78 46.4799 80.7765 47 82.5C49.0339 89.2401 52.3187 91.9989 56 98C60.2048 104.854 61.1315 111.002 67 116.5C68.113 117.543 71.5 119 71.5 119" stroke="black"/>
<path d="M101.5 78C101.5 78 101.02 80.7765 100.5 82.5C98.4661 89.2401 95.1813 91.9989 91.5 98C87.2952 104.854 86.3685 111.002 80.5 116.5C79.387 117.543 76 119 76 119" stroke="black"/>
<path d="M92 97C92 97 97.1384 98.2516 100.5 98.5C106 98.9064 118.5 94.5 124 93.5" stroke="black"/>
<path d="M54 95C54 95 48.8616 96.2516 45.5 96.5C40 96.9064 28.5 93 23 92" stroke="black"/>
<path d="M56.5 57.5C56.5 57.5 62.5378 53.0588 65.5 50C70.4689 44.869 73.5602 40 74.5 40M74.5 40C75.2104 40 78.0827 44.848 83 50C85.8219 52.9566 92 57.5 92 57.5M74.5 40L73.7588 71.5M73.5 82.5L73.7588 71.5M73.7588 71.5L109 64M73.7588 71.5L40.5 64M73.7588 71.5L45.5 78M73.7588 71.5C73.7588 71.5 91.343 73.4562 101.5 78M45.5 78C45.5 78 37.6198 74.4934 32.5 73C28.1239 71.7236 20 71 20 71M45.5 78C45.5 78 39.4651 80.1113 35.5 82.5C30.5809 85.4635 23 92 23 92C23 92 17.0868 95.7904 13.5 98.5C9.84945 101.258 4.5 106 4.5 106M101.5 78C111.24 82.3571 115.58 86.9457 124 93.5C131.755 99.5367 135.936 103.168 143 110M101.5 78C101.5 78 110.64 73.2977 117 72C121.036 71.1765 127.5 71 127.5 71" stroke="black"/>
<path d="M124 93.5C124 93.5 119.844 105.536 120 113.5C120.046 115.851 120.392 117.151 120.5 119.5C120.635 122.426 120.5 127 120.5 127" stroke="black"/>
<path d="M144.5 134C140 135 138.5 135.5 133 135.5C127 135.5 122 134 122 134" stroke="black"/>
<path d="M3 135C7.5 136 9 136.5 14.5 136.5C20.5 136.5 25.5 135 25.5 135" stroke="black"/>
<path d="M23.5 92C23.5 92 27.1288 102.807 28 110C28.5405 114.463 28.5 121.5 28.5 121.5" stroke="black"/>
<path d="M82.5 208.5C82.5 208.5 82.477 210.329 82.5 211.5C82.7396 223.718 87.2515 229.988 89.5 242C90.8467 249.194 91.3284 253.275 92.5 260.5M92.5 260.5C93.4763 264.21 93.5771 266.437 95 270C95.9717 272.433 96.6367 273.763 98 276M92.5 260.5C91.7377 263.875 91.1863 265.75 90 269C88.9803 271.794 88.1716 273.266 87 276M98 276C99.5621 278.148 100.438 279.352 102 281.5M98 276C96.674 274.863 95.7049 274.379 94 274C92.4751 273.661 91.4878 273.524 90 274C88.6589 274.429 87.9119 274.927 87 276M87 276C84.6569 278.538 83.7477 280.406 81 282.5C79.5348 283.617 76 285.5 76 285.5M144.5 134C140 135 138.5 135.5 133 135.5C127 135.5 122 134 122 134" stroke="black"/>
<path d="M69 208.5C69.9672 207.884 71.2431 207.482 72 207C72.9238 206.412 71.6818 207.184 74.5 205M74.5 205C74.5 199.337 74.5 190.5 74.5 190.5M74.5 205C77 207 76.1927 206.477 77.5 207C80 208 80.4288 207.767 82 208.5" stroke="black"/>
<path d="M74.5 191C74.5 191 74.5176 189.085 75 188C77 183.5 78.7226 180.897 82 177C84.1329 174.464 85.6114 172.797 88 170.5C90.4901 168.106 94.5 164.5 94.5 164.5C94.5 164.5 99.4695 160.936 102 158C104.973 154.55 105.588 151.863 108 148C110.467 144.049 111.341 141.422 114.5 138C115.249 137.188 116.5 135.5 116.5 135" stroke="black"/>
<path d="M74.5 191.5C74.5 191.5 73.9824 189.085 73.5 188C71.5 183.5 69.7774 180.897 66.5 177C64.3671 174.464 62.8886 172.797 60.5 170.5C58.0099 168.106 54 164.5 54 164.5C54 164.5 49.0305 160.936 46.5 158C43.5266 154.55 42.9122 151.863 40.5 148C38.033 144.049 37.1594 141.422 34 138C33.2507 137.188 32 135.5 32 135" stroke="black"/>
<path d="M49.5 276.5C50.5 275 52 274.5 53 273M56.5 280.5V274" stroke="black"/>
<path d="M61.5 271C61.5 271 65.1679 279.014 68.5 282.5C69.9341 284.001 72.5 286 72.5 286" stroke="black"/>
<path d="M21 196.5C21 199 17.6339 200.328 15 201.5C12.348 202.68 10 202.5 8 205" stroke="black"/>
<path d="M56 340.5C57 351 59.5 356 60 362C60.25 365 60.2768 365.602 61 367C61.6343 368.226 62.6233 368.57 63.5 369C65.0878 369.778 67.5 369 67.5 369" stroke="black"/>
<path d="M103 293.5C103 293.5 103.3 314.899 102.5 318.5M102.5 318.5C101.5 323 101.5 323 99 327C96.5 331 96 331.5 93 336.5C92.1417 337.931 91.543 338.923 91 340.5C88.5318 347.67 88.8516 351.965 88 359.5C87.7359 361.836 88.0687 363.406 87 365.5C86.4317 366.614 86.0383 367.304 85 368C83.3703 369.093 81.8241 369.224 80 368.5C78.8378 368.039 78.3106 367.452 77.5 366.5C75.8986 364.62 75.5 360.5 75.5 360.5M102.5 318.5V327" stroke="black"/>
<path d="M74 253L75 221.5" stroke="black"/>
</g>
<defs>
<clipPath id="clip0_1130_2655">
<rect width="468" height="383" fill="white" transform="translate(-184)"/>
</clipPath>
</defs>
</svg>
