<svg width="148" height="380" viewBox="0 0 148 380" fill="none" xmlns="http://www.w3.org/2000/svg">
  <defs>
    <linearGradient id="skinGradient" x1="74" y1="0" x2="74" y2="380" gradientUnits="userSpaceOnUse">
      <stop offset="0" stop-color="#DCDCDC"/>
      <stop offset="1" stop-color="#CFCFCF"/>
    </linearGradient>
  </defs>
  
  <!-- Head -->
  <path d="M74 10 C65 10 58 18 58 30 C58 40 64 48 74 48 C84 48 90 40 90 30 C90 18 83 10 74 10 Z" fill="url(#skinGradient)" stroke="#999999" stroke-width="1"/>
  
  <!-- Body -->
  <path d="M74 48 
           L65 50
           Q50 55 40 65 <!-- Traps/Shoulder slope -->
           Q35 68 25 68 <!-- Left Shoulder -->
           Q15 70 12 85
           Q10 100 15 115 <!-- Bicep bulge -->
           L12 140
           Q10 150 8 160 <!-- Forearm -->
           L5 180
           L18 185 <!-- Hand -->
           L22 175
           L25 155
           L28 130 <!-- Inner arm -->
           Q30 120 35 115 <!-- Armpit -->
           L35 140 <!-- Lat flare -->
           Q38 160 42 180 <!-- Waist taper -->
           Q40 190 38 200 <!-- Hip flare -->
           Q35 220 35 240 <!-- Thigh outer -->
           Q35 260 40 280 <!-- Knee area -->
           Q38 300 40 320 <!-- Calf outer -->
           L42 360
           L55 365 <!-- Foot -->
           L65 360
           L65 330 <!-- Inner leg -->
           Q65 300 62 280 <!-- Knee inner -->
           Q60 250 68 210 <!-- Inner thigh -->
           L74 215 <!-- Crotch center -->
           L80 210
           Q88 250 86 280
           Q83 300 83 330
           L83 360
           L93 365
           L106 360
           Q108 320 110 300
           Q112 280 108 260
           Q113 240 113 220
           Q110 190 106 180
           Q110 160 113 140
           L113 115
           Q118 120 120 130
           L123 155
           L126 175
           L130 185
           L143 180
           L140 160
           Q138 150 136 140
           Q138 115 133 100
           Q130 70 123 68
           Q113 65 98 55
           L83 50
           L74 48 Z" 
        fill="url(#skinGradient)" stroke="#999999" stroke-width="1"/>

  <!-- Muscle Definition Lines -->
  <!-- Pecs -->
  <path d="M45 95 Q60 105 74 105 Q88 105 103 95" fill="none" stroke="#B0B0B0" stroke-width="1"/>
  <line x1="74" y1="50" x2="74" y2="105" stroke="#B0B0B0" stroke-width="0.5"/>
  
  <!-- Abs -->
  <line x1="74" y1="105" x2="74" y2="190" stroke="#B0B0B0" stroke-width="0.5"/>
  <path d="M65 125 Q74 130 83 125" fill="none" stroke="#B0B0B0" stroke-width="0.5"/>
  <path d="M66 145 Q74 150 82 145" fill="none" stroke="#B0B0B0" stroke-width="0.5"/>
  <path d="M67 165 Q74 170 81 165" fill="none" stroke="#B0B0B0" stroke-width="0.5"/>
  
  <!-- Knees -->
  <path d="M45 280 Q50 285 58 280" fill="none" stroke="#B0B0B0" stroke-width="0.5"/>
  <path d="M90 280 Q98 285 103 280" fill="none" stroke="#B0B0B0" stroke-width="0.5"/>
</svg>
